<svg viewBox="0 0 1600 900" xmlns="http://www.w3.org/2000/svg" font-family="system-ui,-apple-system,Segoe UI,Roboto,sans-serif">
<defs>
<linearGradient id="bg" x1="0" y1="0" x2="1600" y2="900" gradientUnits="userSpaceOnUse"><stop offset="0" stop-color="#0B0A1F"/><stop offset="0.55" stop-color="#16122F"/><stop offset="1" stop-color="#0C0A20"/></linearGradient>
<radialGradient id="halo" cx="760" cy="450" r="300" gradientUnits="userSpaceOnUse"><stop offset="0" stop-color="#7C5CFF" stop-opacity="0.45"/><stop offset="0.6" stop-color="#6C5CE7" stop-opacity="0.12"/><stop offset="1" stop-color="#6C5CE7" stop-opacity="0"/></radialGradient>
<linearGradient id="hex" x1="650" y1="320" x2="872" y2="580" gradientUnits="userSpaceOnUse"><stop offset="0" stop-color="#8B79FF"/><stop offset="1" stop-color="#4B3BAF"/></linearGradient>
<filter id="glow" x="-80%" y="-80%" width="260%" height="260%"><feGaussianBlur stdDeviation="13"/></filter>
<symbol id="pai" viewBox="0 0 80 80"><path fill="#FFFFFF" fill-rule="nonzero" d="M67.3390075,12.6610036 C68.951829,14.2738907 58.2659161,27.5809778 43.4016726,42.4974565 L42.9499704,42.9499532 C27.8510181,58.0489745 14.2901858,68.9683103 12.6610042,67.3391977 C11.7363513,66.4144917 14.8538629,61.6462816 20.4834792,54.9350835 C19.8753416,54.1246708 19.320518,53.2786925 18.8214322,52.4037091 C16.7609743,48.7901732 15.6499734,44.6721579 15.6499734,40.4396421 C15.6499734,34.0343084 18.1945105,27.8912627 22.7237679,23.3619983 C27.2531014,18.8326925 33.3960781,16.2881623 39.8014808,16.2881623 C44.0339966,16.2881623 48.1518739,17.3991563 51.7654099,19.4596556 C52.6179488,19.9458342 53.4425187,20.4848433 54.23394,21.0746801 C61.3128796,15.0736413 66.3825341,11.7044722 67.3390075,12.6610036 Z M40.0759787,27.96875 C36.8649629,27.96875 33.7854407,29.2421768 31.5148602,31.5088227 C29.2443486,33.7755374 27.96875,36.8498164 27.96875,40.0553653 C27.96875,41.8346843 28.3617099,43.5734906 29.0997194,45.15625 C31.6444872,42.4337491 34.4052305,39.5794952 37.3216648,36.6679575 C40.0008987,33.9933541 42.6317386,31.4498823 45.15625,29.0842666 C43.5786723,28.3562787 41.8473398,27.96875 40.0759787,27.96875 Z M26.25,60.8032108 C26.3669891,60.8815852 26.4846035,60.959263 26.6027737,61.0355476 C30.4972475,63.5529348 35.0617689,64.921875 39.7669691,64.921875 C46.2104721,64.921875 52.3899857,62.3550248 56.9462399,57.7859689 C61.5024944,53.2169129 64.0625,47.0197583 64.0625,40.5581511 C64.0625,35.8396613 62.6973953,31.2623847 60.1870613,27.3569686 C60.1335686,27.2741355 60.0800761,27.1915811 60.0255414,27.109375 C58.9754874,28.476086 57.8316478,29.9033369 56.603748,31.377473 C58.1178681,34.1700416 58.9317206,37.3220182 58.9317206,40.5581511 C58.9317206,45.655207 56.9125465,50.5434734 53.3184653,54.147653 C49.7243841,57.7518324 44.849744,59.7766798 39.7669691,59.7766798 C36.5093357,59.7766798 33.3372906,58.9448657 30.533025,57.3989732 C29.0495417,58.6264913 27.61705,59.7644883 26.25,60.8032108 Z M32.265625,55.4857841 C34.5302412,56.5948865 37.0374269,57.1875 39.6054759,57.1875 C44.0406216,57.1875 48.2939935,55.4205831 51.4301028,52.2755666 C54.5662122,49.13055 56.328125,44.8648248 56.328125,40.4170825 C56.328125,37.8676153 55.7494442,35.378024 54.6645881,33.125 C53.4772714,34.5115655 52.2201723,35.9339747 50.9018014,37.3812352 C51.16425,38.3630074 51.3004103,39.3830129 51.3004103,40.4170825 C51.3004103,43.5275528 50.0681607,46.5106247 47.8749604,48.7099856 C45.6817604,50.9094147 42.7071369,52.1451643 39.6054759,52.1451643 C38.5573828,52.1451643 37.5237908,52.0041795 36.5299577,51.7324513 C35.0776052,53.0508115 33.6523483,54.304312 32.265625,55.4857841 Z"/></symbol>
<symbol id="net" viewBox="0 0 24 24"><path d="M6 8h12M6.6 9.4l4.8 6.4M17.4 9.4l-4.8 6.4" stroke="#fff" stroke-width="1.6" fill="none"/><circle cx="6" cy="8" r="2.4" fill="#fff"/><circle cx="18" cy="8" r="2.4" fill="#fff"/><circle cx="12" cy="17" r="2.4" fill="#fff"/></symbol>
<linearGradient id="gem" x1="2" y1="2" x2="22" y2="22" gradientUnits="userSpaceOnUse"><stop offset="0" stop-color="#4796E3"/><stop offset="0.5" stop-color="#9168C0"/><stop offset="1" stop-color="#D96570"/></linearGradient>
<symbol id="lg-claude" viewBox="0 0 24 24"><g stroke="#D97757" stroke-width="2" stroke-linecap="round"><line x1="14.5" y1="12" x2="23" y2="12"/><line x1="14.16" y1="13.25" x2="21.53" y2="17.5"/><line x1="13.25" y1="14.16" x2="17.5" y2="21.53"/><line x1="12" y1="14.5" x2="12" y2="23"/><line x1="10.75" y1="14.16" x2="6.5" y2="21.53"/><line x1="9.84" y1="13.25" x2="2.47" y2="17.5"/><line x1="9.5" y1="12" x2="1" y2="12"/><line x1="9.84" y1="10.75" x2="2.47" y2="6.5"/><line x1="10.75" y1="9.84" x2="6.5" y2="2.47"/><line x1="12" y1="9.5" x2="12" y2="1"/><line x1="13.25" y1="9.84" x2="17.5" y2="2.47"/><line x1="14.16" y1="10.75" x2="21.53" y2="6.5"/></g></symbol>
<symbol id="lg-gpt" viewBox="0 0 24 24"><g fill="none" stroke="#FFFFFF" stroke-width="1.5"><ellipse cx="12" cy="12" rx="3.4" ry="9.4"/><ellipse cx="12" cy="12" rx="3.4" ry="9.4" transform="rotate(60 12 12)"/><ellipse cx="12" cy="12" rx="3.4" ry="9.4" transform="rotate(120 12 12)"/></g></symbol>
<symbol id="lg-gemini" viewBox="0 0 24 24"><path d="M12,1 C12.5,7 17,11.5 23,12 C17,12.5 12.5,17 12,23 C11.5,17 7,12.5 1,12 C7,11.5 11.5,7 12,1 Z" fill="url(#gem)"/></symbol>
</defs>

<rect x="0" y="0" width="1600" height="900" fill="url(#bg)"/>
<g stroke="#FFFFFF" stroke-opacity="0.035" stroke-width="1"><path d="M0 150H1600M0 300H1600M0 450H1600M0 600H1600M0 750H1600"/><path d="M200 0V900M400 0V900M600 0V900M800 0V900M1000 0V900M1200 0V900M1400 0V900"/></g>
<circle cx="760" cy="450" r="300" fill="url(#halo)"/>

<!-- user -> gateway (always on) -->
<g fill="none" stroke-linecap="round">
<path d="M395,450 H648" stroke="#6C5CE7" stroke-opacity="0.25" stroke-width="14"/>
<path d="M395,450 H648" stroke="#B7A6FF" stroke-width="3"/>
</g>

<!-- ===== dashed trails of abandoned routes (appear only after a failure) ===== -->
<path d="M876,445 C1010,430 1040,250 1124,250" fill="none" stroke="#6E63B8" stroke-opacity="0.55" stroke-width="2.5" stroke-dasharray="6 7" opacity="0"><animate attributeName="opacity" dur="12s" repeatCount="indefinite" keyTimes="0;0.30;0.33;0.95;0.99;1" values="0;0;1;1;0;0"/></path>
<path d="M876,450 C1000,452 1015,450 1124,450" fill="none" stroke="#6E63B8" stroke-opacity="0.55" stroke-width="2.5" stroke-dasharray="6 7" opacity="0"><animate attributeName="opacity" dur="12s" repeatCount="indefinite" keyTimes="0;0.62;0.65;0.95;0.99;1" values="0;0;1;1;0;0"/></path>

<!-- ===== active route to P1 (draws in, then hides on failure) ===== -->
<path d="M876,445 C1010,430 1040,250 1124,250" fill="none" stroke="#6C5CE7" stroke-opacity="0.22" stroke-width="14" stroke-linecap="round" pathLength="1" stroke-dasharray="1 1" stroke-dashoffset="1"><animate attributeName="stroke-dashoffset" dur="12s" repeatCount="indefinite" keyTimes="0;0.10;1" values="1;0;0"/><animate attributeName="opacity" dur="12s" repeatCount="indefinite" keyTimes="0;0.30;0.32;1" values="1;1;0;0"/></path>
<path d="M876,445 C1010,430 1040,250 1124,250" fill="none" stroke="#B7A6FF" stroke-width="3" stroke-linecap="round" pathLength="1" stroke-dasharray="1 1" stroke-dashoffset="1"><animate attributeName="stroke-dashoffset" dur="12s" repeatCount="indefinite" keyTimes="0;0.10;1" values="1;0;0"/><animate attributeName="opacity" dur="12s" repeatCount="indefinite" keyTimes="0;0.30;0.32;1" values="1;1;0;0"/></path>

<!-- ===== active route to P2 (draws in after P1 fails) ===== -->
<path d="M876,450 C1000,452 1015,450 1124,450" fill="none" stroke="#6C5CE7" stroke-opacity="0.22" stroke-width="14" stroke-linecap="round" pathLength="1" stroke-dasharray="1 1" stroke-dashoffset="1" opacity="0"><animate attributeName="stroke-dashoffset" dur="12s" repeatCount="indefinite" keyTimes="0;0.32;0.44;1" values="1;1;0;0"/><animate attributeName="opacity" dur="12s" repeatCount="indefinite" keyTimes="0;0.32;0.33;0.62;0.64;1" values="0;0;1;1;0;0"/></path>
<path d="M876,450 C1000,452 1015,450 1124,450" fill="none" stroke="#B7A6FF" stroke-width="3" stroke-linecap="round" pathLength="1" stroke-dasharray="1 1" stroke-dashoffset="1" opacity="0"><animate attributeName="stroke-dashoffset" dur="12s" repeatCount="indefinite" keyTimes="0;0.32;0.44;1" values="1;1;0;0"/><animate attributeName="opacity" dur="12s" repeatCount="indefinite" keyTimes="0;0.32;0.33;0.62;0.64;1" values="0;0;1;1;0;0"/></path>

<!-- ===== active route to P3 (draws in after P2 fails) ===== -->
<path d="M876,455 C1010,470 1040,650 1124,650" fill="none" stroke="#6C5CE7" stroke-opacity="0.22" stroke-width="14" stroke-linecap="round" pathLength="1" stroke-dasharray="1 1" stroke-dashoffset="1" opacity="0"><animate attributeName="stroke-dashoffset" dur="12s" repeatCount="indefinite" keyTimes="0;0.64;0.76;1" values="1;1;0;0"/><animate attributeName="opacity" dur="12s" repeatCount="indefinite" keyTimes="0;0.64;0.65;0.95;0.99;1" values="0;0;1;1;0;0"/></path>
<path d="M876,455 C1010,470 1040,650 1124,650" fill="none" stroke="#B7A6FF" stroke-width="3" stroke-linecap="round" pathLength="1" stroke-dasharray="1 1" stroke-dashoffset="1" opacity="0"><animate attributeName="stroke-dashoffset" dur="12s" repeatCount="indefinite" keyTimes="0;0.64;0.76;1" values="1;1;0;0"/><animate attributeName="opacity" dur="12s" repeatCount="indefinite" keyTimes="0;0.64;0.65;0.95;0.99;1" values="0;0;1;1;0;0"/></path>

<!-- token user -->
<rect x="208" y="382" width="184" height="136" rx="20" fill="#191634" stroke="#352C63" stroke-width="1.5"/>
<polyline points="276,432 266,450 276,468" fill="none" stroke="#A78BFA" stroke-width="3" stroke-linecap="round" stroke-linejoin="round"/>
<line x1="296" y1="430" x2="304" y2="470" stroke="#A78BFA" stroke-width="3" stroke-linecap="round"/>
<polyline points="324,432 334,450 324,468" fill="none" stroke="#A78BFA" stroke-width="3" stroke-linecap="round" stroke-linejoin="round"/>
<text x="300" y="556" font-size="24" font-weight="600" fill="#CFC9EC" text-anchor="middle">Token User</text>

<!-- gateway -->
<polygon points="760,318 873,385 873,515 760,582 647,515 647,385" fill="url(#hex)" stroke="#C3B4FF" stroke-width="3"/>
<polygon points="760,318 873,385 873,515 760,582 647,515 647,385" fill="none" stroke="#8B79FF" stroke-width="10" stroke-opacity="0.2"/>
<use href="#pai" x="712" y="402" width="96" height="96"/>
<text x="760" y="636" font-size="30" font-weight="700" fill="#F3F1FF" text-anchor="middle">PublicAI Gateway</text>
<text x="760" y="664" font-size="18" fill="#A99FE0" text-anchor="middle">Unified, secure, intelligent routing</text>

<!-- active-state glows -->
<circle cx="1180" cy="250" r="58" fill="#22C55E" filter="url(#glow)" opacity="0"><animate attributeName="opacity" dur="12s" repeatCount="indefinite" keyTimes="0;0.19;0.21;0.30;0.32;1" values="0;0;0.6;0.6;0;0"/></circle>
<circle cx="1180" cy="450" r="58" fill="#22C55E" filter="url(#glow)" opacity="0"><animate attributeName="opacity" dur="12s" repeatCount="indefinite" keyTimes="0;0.51;0.53;0.62;0.64;1" values="0;0;0.6;0.6;0;0"/></circle>
<circle cx="1180" cy="650" r="58" fill="#22C55E" filter="url(#glow)" opacity="0"><animate attributeName="opacity" dur="12s" repeatCount="indefinite" keyTimes="0;0.83;0.85;0.95;0.99;1" values="0;0;0.6;0.6;0;0"/></circle>

<!-- ===== PROVIDER 1 ===== -->
<polygon points="1180,190 1232,220 1232,280 1180,310 1128,280 1128,220" fill="#191634" stroke="#4A4470" stroke-width="2.8"><animate attributeName="stroke" dur="12s" repeatCount="indefinite" keyTimes="0;0.18;0.20;0.30;0.32;0.95;0.99;1" values="#4A4470;#4A4470;#34D399;#34D399;#FF5A5A;#FF5A5A;#4A4470;#4A4470"/></polygon>
<rect x="1162" y="232" width="36" height="36" rx="9" fill="#3A3560"><animate attributeName="fill" dur="12s" repeatCount="indefinite" keyTimes="0;0.18;0.20;0.30;0.32;0.95;0.99;1" values="#3A3560;#3A3560;#22C55E;#22C55E;#EF4444;#EF4444;#3A3560;#3A3560"/></rect>
<use href="#net" x="1168" y="238" width="24" height="24"/>
<text x="1262" y="240" font-size="26" font-weight="700" fill="#EFEDFB">Provider 1</text><use href="#lg-claude" x="1262" y="251" width="22" height="22"/><use href="#lg-gpt" x="1293" y="251" width="22" height="22"/><use href="#lg-gemini" x="1324" y="251" width="22" height="22"/><text x="1357" y="268" font-size="15" fill="#9990C9">+ more</text>
<g opacity="0"><circle cx="1238" cy="216" r="15" fill="#22C55E" stroke="#0B0A1F" stroke-width="2.5"/><path d="M1231,216 l4,5 l9,-11" fill="none" stroke="#fff" stroke-width="3" stroke-linecap="round" stroke-linejoin="round"/><animate attributeName="opacity" dur="12s" repeatCount="indefinite" keyTimes="0;0.20;0.22;0.30;0.32;1" values="0;0;1;1;0;0"/></g>
<g opacity="0"><circle cx="1238" cy="216" r="15" fill="#EF4444" stroke="#0B0A1F" stroke-width="2.5"/><line x1="1232" y1="210" x2="1244" y2="222" stroke="#fff" stroke-width="3" stroke-linecap="round"/><line x1="1244" y1="210" x2="1232" y2="222" stroke="#fff" stroke-width="3" stroke-linecap="round"/><animate attributeName="opacity" dur="12s" repeatCount="indefinite" keyTimes="0;0.32;0.34;0.95;0.99;1" values="0;0;1;1;0;0"/></g>

<!-- ===== PROVIDER 2 ===== -->
<polygon points="1180,390 1232,420 1232,480 1180,510 1128,480 1128,420" fill="#191634" stroke="#4A4470" stroke-width="2.8"><animate attributeName="stroke" dur="12s" repeatCount="indefinite" keyTimes="0;0.50;0.52;0.62;0.64;0.95;0.99;1" values="#4A4470;#4A4470;#34D399;#34D399;#FF5A5A;#FF5A5A;#4A4470;#4A4470"/></polygon>
<rect x="1162" y="432" width="36" height="36" rx="9" fill="#3A3560"><animate attributeName="fill" dur="12s" repeatCount="indefinite" keyTimes="0;0.50;0.52;0.62;0.64;0.95;0.99;1" values="#3A3560;#3A3560;#22C55E;#22C55E;#EF4444;#EF4444;#3A3560;#3A3560"/></rect>
<use href="#net" x="1168" y="438" width="24" height="24"/>
<text x="1262" y="440" font-size="26" font-weight="700" fill="#EFEDFB">Provider 2</text><use href="#lg-claude" x="1262" y="451" width="22" height="22"/><use href="#lg-gpt" x="1293" y="451" width="22" height="22"/><use href="#lg-gemini" x="1324" y="451" width="22" height="22"/><text x="1357" y="468" font-size="15" fill="#9990C9">+ more</text>
<g opacity="0"><circle cx="1238" cy="416" r="15" fill="#22C55E" stroke="#0B0A1F" stroke-width="2.5"/><path d="M1231,416 l4,5 l9,-11" fill="none" stroke="#fff" stroke-width="3" stroke-linecap="round" stroke-linejoin="round"/><animate attributeName="opacity" dur="12s" repeatCount="indefinite" keyTimes="0;0.52;0.54;0.62;0.64;1" values="0;0;1;1;0;0"/></g>
<g opacity="0"><circle cx="1238" cy="416" r="15" fill="#EF4444" stroke="#0B0A1F" stroke-width="2.5"/><line x1="1232" y1="410" x2="1244" y2="422" stroke="#fff" stroke-width="3" stroke-linecap="round"/><line x1="1244" y1="410" x2="1232" y2="422" stroke="#fff" stroke-width="3" stroke-linecap="round"/><animate attributeName="opacity" dur="12s" repeatCount="indefinite" keyTimes="0;0.64;0.66;0.95;0.99;1" values="0;0;1;1;0;0"/></g>

<!-- ===== PROVIDER 3 ===== -->
<polygon points="1180,590 1232,620 1232,680 1180,710 1128,680 1128,620" fill="#191634" stroke="#4A4470" stroke-width="2.8"><animate attributeName="stroke" dur="12s" repeatCount="indefinite" keyTimes="0;0.82;0.84;0.95;0.99;1" values="#4A4470;#4A4470;#34D399;#34D399;#4A4470;#4A4470"/></polygon>
<rect x="1162" y="632" width="36" height="36" rx="9" fill="#3A3560"><animate attributeName="fill" dur="12s" repeatCount="indefinite" keyTimes="0;0.82;0.84;0.95;0.99;1" values="#3A3560;#3A3560;#22C55E;#22C55E;#3A3560;#3A3560"/></rect>
<use href="#net" x="1168" y="638" width="24" height="24"/>
<text x="1262" y="640" font-size="26" font-weight="700" fill="#EFEDFB">Provider 3</text><use href="#lg-claude" x="1262" y="651" width="22" height="22"/><use href="#lg-gpt" x="1293" y="651" width="22" height="22"/><use href="#lg-gemini" x="1324" y="651" width="22" height="22"/><text x="1357" y="668" font-size="15" fill="#9990C9">+ more</text>
<g opacity="0"><circle cx="1238" cy="616" r="15" fill="#22C55E" stroke="#0B0A1F" stroke-width="2.5"/><path d="M1231,616 l4,5 l9,-11" fill="none" stroke="#fff" stroke-width="3" stroke-linecap="round" stroke-linejoin="round"/><animate attributeName="opacity" dur="12s" repeatCount="indefinite" keyTimes="0;0.84;0.86;0.95;0.99;1" values="0;0;1;1;0;0"/></g>

<!-- gateway pulse ring -->
<circle cx="760" cy="450" r="150" fill="none" stroke="#A78BFA" stroke-width="2" opacity="0"><animate attributeName="r" values="150;188" dur="3s" repeatCount="indefinite"/><animate attributeName="opacity" values="0.5;0" dur="3s" repeatCount="indefinite"/></circle>

<!-- ===== request packets ===== -->
<circle r="6" fill="#E7DEFF" opacity="0"><animateMotion dur="12s" repeatCount="indefinite" calcMode="linear" keyTimes="0;0.02;0.08;1" keyPoints="0;0;1;1" path="M395,450 H648"/><animate attributeName="opacity" dur="12s" repeatCount="indefinite" keyTimes="0;0.02;0.02;0.08;0.08;1" values="0;0;1;1;0;0"/></circle>
<circle r="6" fill="#E7DEFF" opacity="0"><animateMotion dur="12s" repeatCount="indefinite" calcMode="linear" keyTimes="0;0.36;0.42;1" keyPoints="0;0;1;1" path="M395,450 H648"/><animate attributeName="opacity" dur="12s" repeatCount="indefinite" keyTimes="0;0.36;0.36;0.42;0.42;1" values="0;0;1;1;0;0"/></circle>
<circle r="6" fill="#E7DEFF" opacity="0"><animateMotion dur="12s" repeatCount="indefinite" calcMode="linear" keyTimes="0;0.68;0.74;1" keyPoints="0;0;1;1" path="M395,450 H648"/><animate attributeName="opacity" dur="12s" repeatCount="indefinite" keyTimes="0;0.68;0.68;0.74;0.74;1" values="0;0;1;1;0;0"/></circle>
<circle r="6" fill="#E7DEFF" opacity="0"><animateMotion dur="12s" repeatCount="indefinite" calcMode="linear" keyTimes="0;0.12;0.20;1" keyPoints="0;0;1;1" path="M876,445 C1010,430 1040,250 1124,250"/><animate attributeName="opacity" dur="12s" repeatCount="indefinite" keyTimes="0;0.12;0.12;0.20;0.20;1" values="0;0;1;1;0;0"/></circle>
<circle r="6" fill="#E7DEFF" opacity="0"><animateMotion dur="12s" repeatCount="indefinite" calcMode="linear" keyTimes="0;0.44;0.52;1" keyPoints="0;0;1;1" path="M876,450 C1000,452 1015,450 1124,450"/><animate attributeName="opacity" dur="12s" repeatCount="indefinite" keyTimes="0;0.44;0.44;0.52;0.52;1" values="0;0;1;1;0;0"/></circle>
<circle r="6" fill="#E7DEFF" opacity="0"><animateMotion dur="12s" repeatCount="indefinite" calcMode="linear" keyTimes="0;0.76;0.84;1" keyPoints="0;0;1;1" path="M876,455 C1010,470 1040,650 1124,650"/><animate attributeName="opacity" dur="12s" repeatCount="indefinite" keyTimes="0;0.76;0.76;0.84;0.84;1" values="0;0;1;1;0;0"/></circle>
</svg>
